<svg width="29" height="29" viewBox="0 0 29 29" fill="none" xmlns="http://www.w3.org/2000/svg">
<path fill-rule="evenodd" clip-rule="evenodd" d="M28.9462 16.5815L27.3231 11.1604L24.1057 0.415224C24.0633 0.29283 23.9906 0.188015 23.8969 0.11422C23.8032 0.0404241 23.6928 0.00100708 23.5799 0.00100708C23.4669 0.00100708 23.3565 0.0404241 23.2629 0.11422C23.1692 0.188015 23.0965 0.29283 23.0541 0.415224L19.8367 11.1604H9.15904L5.94162 0.415224C5.89921 0.29283 5.82652 0.188015 5.73284 0.11422C5.63917 0.0404241 5.52878 0.00100708 5.41582 0.00100708C5.30286 0.00100708 5.19247 0.0404241 5.0988 0.11422C5.00513 0.188015 4.93243 0.29283 4.89003 0.415224L1.6726 11.1604L0.0528812 16.5815C-0.0181402 16.8255 -0.0172044 17.0903 0.0555393 17.3335C0.128283 17.5768 0.268642 17.7846 0.454213 17.9237L14.4983 29.0005L28.5423 17.9237C28.7279 17.7846 28.8683 17.5768 28.941 17.3335C29.0137 17.0903 29.0147 16.8255 28.9437 16.5815" fill="#FC6D26"/>
<path fill-rule="evenodd" clip-rule="evenodd" d="M14.4988 28.9995L19.8381 11.1555H9.15875L14.4988 28.9956V28.9995Z" fill="#E24329"/>
<path fill-rule="evenodd" clip-rule="evenodd" d="M14.4988 29.0004L9.15876 11.1594H1.6757L14.4988 29.0004Z" fill="#FC6D26"/>
<path fill-rule="evenodd" clip-rule="evenodd" d="M1.67485 11.1594L0.0525913 16.5805C-0.0184301 16.8245 -0.0174943 17.0892 0.0552494 17.3325C0.127993 17.5758 0.268352 17.7836 0.453923 17.9227L14.498 28.9994L1.67485 11.1594Z" fill="#FCA326"/>
<path fill-rule="evenodd" clip-rule="evenodd" d="M1.6757 11.1594H9.1596L5.94218 0.414217C5.89977 0.291823 5.82708 0.187008 5.7334 0.113213C5.63973 0.039417 5.52934 0 5.41638 0C5.30342 0 5.19304 0.039417 5.09936 0.113213C5.00569 0.187008 4.93299 0.291823 4.89059 0.414217L1.6757 11.1594Z" fill="#E24329"/>
<path fill-rule="evenodd" clip-rule="evenodd" d="M14.4988 29.0005L19.8389 11.1604H27.3228L14.4988 29.0005Z" fill="#FC6D26"/>
<path fill-rule="evenodd" clip-rule="evenodd" d="M27.322 11.1594L28.9451 16.5805C29.0161 16.8245 29.0151 17.0892 28.9424 17.3325C28.8697 17.5758 28.7293 17.7836 28.5437 17.9227L14.4988 28.9994L27.322 11.1594Z" fill="#FCA326"/>
<path fill-rule="evenodd" clip-rule="evenodd" d="M27.322 11.1594H19.8381L23.0555 0.414217C23.0979 0.291823 23.1706 0.187008 23.2643 0.113213C23.3579 0.039417 23.4683 0 23.5813 0C23.6942 0 23.8046 0.039417 23.8983 0.113213C23.992 0.187008 24.0647 0.291823 24.1071 0.414217L27.3245 11.1594H27.322Z" fill="#E24329"/>
</svg>
