<svg width="27" height="27" viewBox="0 0 27 27" fill="none" xmlns="http://www.w3.org/2000/svg">
<path d="M4.26484 12.132C4.2224 12.132 4.21179 12.108 4.23301 12.072L4.4558 11.748C4.47702 11.712 4.53006 11.688 4.5725 11.688H8.35992C8.40236 11.688 8.41297 11.724 8.39175 11.76L8.2114 12.072C8.19018 12.108 8.13713 12.144 8.1053 12.144L4.26484 12.132Z" fill="#00ACD7"/>
<path d="M2.66287 13.236C2.62043 13.236 2.60982 13.212 2.63104 13.176L2.85383 12.852C2.87505 12.816 2.9281 12.792 2.97053 12.792H7.80825C7.85069 12.792 7.87191 12.828 7.8613 12.864L7.77643 13.152C7.76582 13.2 7.72338 13.224 7.68095 13.224L2.66287 13.236Z" fill="#00ACD7"/>
<path d="M5.23026 14.34C5.18782 14.34 5.17721 14.304 5.19843 14.268L5.34696 13.968C5.36817 13.932 5.41061 13.896 5.45305 13.896H7.57486C7.61729 13.896 7.63851 13.932 7.63851 13.98L7.61729 14.268C7.61729 14.316 7.57486 14.352 7.54303 14.352L5.23026 14.34Z" fill="#00ACD7"/>
<path d="M16.2424 11.9159C15.5741 12.1079 15.1179 12.2519 14.4601 12.4439C14.301 12.4919 14.2904 12.5039 14.1525 12.3239C13.9933 12.1199 13.8766 11.9879 13.6538 11.8679C12.9855 11.4959 12.3383 11.6039 11.7336 12.0479C11.0122 12.5759 10.6409 13.3559 10.6515 14.3279C10.6621 15.2879 11.2456 16.0799 12.0837 16.2119C12.8051 16.3199 13.4098 16.0319 13.8872 15.4199C13.9827 15.2879 14.0676 15.1439 14.1737 14.9759C13.7918 14.9759 13.3143 14.9759 12.1261 14.9759C11.9033 14.9759 11.8503 14.8199 11.9246 14.6159C12.0625 14.2439 12.3171 13.6199 12.4656 13.3079C12.4975 13.2359 12.5717 13.1159 12.7309 13.1159C13.2719 13.1159 15.2664 13.1159 16.5925 13.1159C16.5713 13.4399 16.5713 13.7639 16.5289 14.0879C16.4122 14.9519 16.1257 15.7439 15.6589 16.4399C14.8951 17.5799 13.8978 18.2879 12.6354 18.4799C11.5957 18.6359 10.6303 18.4079 9.78154 17.6879C8.99647 17.0159 8.55089 16.1279 8.43419 15.0239C8.29627 13.7159 8.63576 12.5399 9.33596 11.5079C10.0892 10.3919 11.0864 9.68387 12.3065 9.43187C13.3037 9.22787 14.2586 9.35987 15.1179 10.0199C15.6802 10.4399 16.0833 11.0159 16.3485 11.7119C16.4122 11.8199 16.3698 11.8799 16.2424 11.9159Z" fill="#00ACD7"/>
<path d="M19.754 18.5521C18.7886 18.5281 17.9081 18.2161 17.1654 17.4961C16.5395 16.8841 16.147 16.1041 16.0196 15.1801C15.8287 13.8241 16.1576 12.6241 16.879 11.5561C17.6534 10.4041 18.587 9.80408 19.8495 9.55208C20.9316 9.33608 21.9501 9.45608 22.8731 10.1641C23.7112 10.8121 24.231 11.6881 24.369 12.8401C24.5493 14.4601 24.1356 15.7801 23.1489 16.9081C22.4487 17.7121 21.5894 18.2161 20.6028 18.4441C20.3163 18.5041 20.0299 18.5161 19.754 18.5521ZM22.279 13.7041C22.2684 13.5481 22.2684 13.4281 22.2472 13.3081C22.0562 12.1201 21.0908 11.4481 20.0829 11.7121C19.0963 11.9641 18.4597 12.6721 18.2263 13.8001C18.0354 14.7361 18.4385 15.6841 19.2024 16.0681C19.7859 16.3561 20.3694 16.3201 20.9316 15.9961C21.7697 15.5041 22.2259 14.7361 22.279 13.7041Z" fill="#00ACD7"/>
</svg>
